<?xml version="1.0" encoding="UTF-8"?>
<svg id="Layer_2" data-name="Layer 2" xmlns="http://www.w3.org/2000/svg" viewBox="0 0 408.97 416.79">
  <defs>
    <style>
      .cls-1, .cls-2, .cls-3, .cls-4, .cls-5, .cls-6 {
        fill: none;
        stroke: #fafafa;
        stroke-linecap: round;
      }

      .cls-1, .cls-2, .cls-3, .cls-5, .cls-6 {
        stroke-miterlimit: 10;
      }

      .cls-1, .cls-4 {
        stroke-width: .51px;
      }

      .cls-2 {
        stroke-width: 1.03px;
      }

      .cls-3, .cls-7 {
        opacity: .5;
      }

      .cls-3, .cls-5 {
        stroke-width: .15px;
      }

      .cls-4 {
        stroke-linejoin: round;
      }

      .cls-6 {
        stroke-width: .26px;
      }
    </style>
  </defs>
  <g id="Object">
    <g>
      <line class="cls-3" x1="138.69" y1="177.92" x2="406.33" y2="104.78"/>
      <g>
        <line class="cls-6" x1="352.58" y1="36.86" x2="408.84" y2="137.2"/>
        <line class="cls-6" x1="408.84" y1="251.75" x2="238.89" y2="411.55"/>
        <line class="cls-6" x1="408.84" y1="245.37" x2="238.89" y2="381.97"/>
        <line class="cls-6" x1=".13" y1="163.5" x2="128.5" y2="115.55"/>
        <line class="cls-6" x1="352.58" y1="181.86" x2="114.2" y2="115.55"/>
        <line class="cls-6" x1=".13" y1="254.94" x2="137.56" y2="297.58"/>
        <line class="cls-6" x1="260.35" y1="381.97" x2=".13" y2="267.12"/>
        <line class="cls-6" x1="260.35" y1="411.55" x2=".13" y2="279.3"/>
        <line class="cls-6" x1="250.51" y1="165.05" x2="408.84" y2="197.73"/>
        <line class="cls-6" x1="267.51" y1="166.2" x2=".13" y2="202.16"/>
        <line class="cls-6" x1=".13" y1="252.43" x2="275" y2="327.45"/>
        <line class="cls-6" x1="254.27" y1="327.45" x2="408.84" y2="236.58"/>
        <line class="cls-6" x1="378.68" y1="45.56" x2=".13" y2="181.39"/>
        <line class="cls-6" x1="137.56" y1="210.6" x2=".13" y2="213.38"/>
        <line class="cls-6" x1="114.2" y1="210.6" x2="408.84" y2="215.75"/>
        <line class="cls-6" x1="121.16" y1="297.58" x2="408.84" y2="224.78"/>
      </g>
      <g class="cls-7">
        <line class="cls-5" x1="352.58" y1="33.72" x2="408.84" y2="134.07"/>
        <line class="cls-5" x1="408.84" y1="248.62" x2="238.89" y2="408.41"/>
        <line class="cls-5" x1="408.84" y1="242.24" x2="238.89" y2="378.83"/>
        <line class="cls-5" x1=".13" y1="160.36" x2="128.5" y2="112.41"/>
        <line class="cls-5" x1="352.58" y1="178.73" x2="114.2" y2="112.41"/>
        <line class="cls-5" x1=".13" y1="251.81" x2="137.56" y2="294.44"/>
        <line class="cls-5" x1="260.35" y1="378.83" x2=".13" y2="263.99"/>
        <line class="cls-5" x1="260.35" y1="408.41" x2=".13" y2="276.17"/>
        <line class="cls-5" x1="250.51" y1="161.92" x2="408.84" y2="194.59"/>
        <line class="cls-5" x1="267.51" y1="163.07" x2=".13" y2="199.03"/>
        <line class="cls-5" x1=".13" y1="249.3" x2="275" y2="324.31"/>
        <line class="cls-5" x1="254.27" y1="324.31" x2="408.84" y2="233.44"/>
        <line class="cls-5" x1="378.68" y1="42.42" x2=".13" y2="178.25"/>
        <line class="cls-5" x1="137.56" y1="207.47" x2=".13" y2="210.24"/>
        <line class="cls-5" x1="114.2" y1="207.47" x2="408.84" y2="212.62"/>
        <line class="cls-5" x1="121.16" y1="294.44" x2="408.84" y2="221.65"/>
      </g>
      <g class="cls-7">
        <line class="cls-5" x1="352.58" y1="39.26" x2="408.84" y2="139.6"/>
        <line class="cls-5" x1="408.84" y1="254.16" x2="238.89" y2="413.95"/>
        <line class="cls-5" x1="408.84" y1="247.78" x2="238.89" y2="384.37"/>
        <line class="cls-5" x1=".13" y1="165.9" x2="128.5" y2="117.95"/>
        <line class="cls-5" x1="352.58" y1="184.27" x2="114.2" y2="117.95"/>
        <line class="cls-5" x1=".13" y1="257.35" x2="137.56" y2="299.98"/>
        <line class="cls-5" x1="260.35" y1="384.37" x2=".13" y2="269.53"/>
        <line class="cls-5" x1="260.35" y1="413.95" x2=".13" y2="281.71"/>
        <line class="cls-5" x1="250.51" y1="167.46" x2="408.84" y2="200.13"/>
        <line class="cls-5" x1="267.51" y1="168.61" x2=".13" y2="204.57"/>
        <line class="cls-5" x1=".13" y1="254.83" x2="275" y2="329.85"/>
        <line class="cls-5" x1="254.27" y1="329.85" x2="408.84" y2="238.98"/>
        <line class="cls-5" x1="378.68" y1="47.96" x2=".13" y2="183.79"/>
        <line class="cls-5" x1="137.56" y1="213.01" x2=".13" y2="215.78"/>
        <line class="cls-5" x1="114.2" y1="213.01" x2="408.84" y2="218.16"/>
        <line class="cls-5" x1="121.16" y1="299.98" x2="408.84" y2="227.19"/>
      </g>
      <g>
        <polygon class="cls-6" points="4.64 162.1 4.64 281.61 8.42 283.51 8.42 160.69 4.64 162.1"/>
        <polyline class="cls-6" points="8.42 160.69 12.54 161.56 12.54 282.28 8.42 283.51"/>
      </g>
      <polygon class="cls-6" points="130.24 295.28 130.24 120.01 138.69 122.36 138.69 293.14 130.24 295.28"/>
      <polygon class="cls-6" points="130.24 120.01 122.12 122.51 122.12 292.77 130.24 295.28 130.24 120.01"/>
      <polygon class="cls-6" points="169.88 179.95 169.88 298.76 176.02 300.43 176.02 179.15 169.88 179.95"/>
      <polyline class="cls-6" points="176.02 179.15 182.25 180.12 182.25 298.18 176.02 300.43"/>
      <polygon class="cls-6" points="260.84 323.58 260.84 167.17 252.15 168.27 252.15 321.21 260.84 323.58"/>
      <polygon class="cls-6" points="260.84 167.17 268.73 168.81 268.73 318.94 260.84 323.58 260.84 167.17"/>
      <polygon class="cls-1" points="361.02 51.9 361.02 296.72 365.73 292.29 365.73 60.3 361.02 51.9"/>
      <polygon class="cls-1" points="361.02 51.9 353.65 54.54 353.65 295.71 361.02 296.72 361.02 51.9"/>
      <polygon class="cls-6" points="401.64 124.36 401.64 258.52 398.82 261.18 398.82 119.32 401.64 124.36"/>
      <polyline class="cls-6" points="398.82 119.32 394.39 120.82 394.39 261.18 398.82 261.18"/>
      <g>
        <polygon class="cls-6" points="226.04 100.33 226.04 278.15 232.4 279.3 232.4 98.05 226.04 100.33"/>
        <polygon class="cls-6" points="232.4 98.05 238.89 101.53 238.89 276.26 232.4 279.3 232.4 98.05"/>
      </g>
      <line class="cls-6" x1="367.2" y1="297.58" x2=".13" y2="247.06"/>
      <polyline class="cls-1" points="394.39 287.14 333.54 280.85 333.54 182.1"/>
      <line class="cls-1" x1="325.92" y1="79.15" x2="257.83" y2="101.76"/>
      <line class="cls-1" x1="262.12" y1="97.13" x2="262.12" y2="167.17"/>
      <polyline class="cls-1" points="262.12 100.34 276.04 106.41 322.63 91.91"/>
      <line class="cls-1" x1="276.04" y1="106.41" x2="276.04" y2="169.51"/>
      <polyline class="cls-1" points="280.97 171.32 280.97 109.89 322.63 97.13"/>
      <polyline class="cls-1" points="280.97 109.89 284.45 111.92 322.63 100.32"/>
      <line class="cls-1" x1="284.45" y1="111.92" x2="284.45" y2="172.06"/>
      <line class="cls-1" x1="306.41" y1="102.1" x2="306.41" y2="176.58"/>
      <polyline class="cls-4" points="309.59 177.24 309.59 101.12 312.18 103.49 312.18 177.77"/>
      <polygon class="cls-1" points="372.11 102.4 372.11 167.17 390.19 176.35 390.19 126.18 372.11 102.4"/>
      <polyline class="cls-1" points="390.19 126.18 385.06 126.18 372.11 112.65"/>
      <line class="cls-1" x1="385.06" y1="126.18" x2="385.06" y2="173.59"/>
      <polyline class="cls-1" points="383.32 172.86 383.32 127.34 372.11 115.55"/>
      <polyline class="cls-1" points="383.32 127.34 381.92 127.34 372.11 117.92"/>
      <line class="cls-1" x1="381.92" y1="127.34" x2="381.92" y2="172.15"/>
      <polyline class="cls-1" points="244.02 319.33 244.02 188.68 187.07 194.62 187.07 303.45 201.67 297.58 201.67 193.1"/>
      <line class="cls-1" x1="201.67" y1="297.58" x2="244.02" y2="308.5"/>
      <polygon class="cls-1" points="220.73 203.52 206.42 204.68 206.42 231.21 220.73 231.21 220.73 203.52"/>
      <polygon class="cls-1" points="223.82 203.52 223.82 231.21 241.41 231.21 241.41 202.16 223.82 203.52"/>
      <polygon class="cls-1" points="206.42 234.64 220.73 234.64 220.73 260.16 206.42 259.2 206.42 234.64"/>
      <polygon class="cls-1" points="223.82 234.64 223.82 260.16 241.41 261.18 241.41 235.03 223.82 234.64"/>
      <polygon class="cls-1" points="277.66 188.68 277.66 213.46 327.37 214.33 327.37 194.91 277.66 188.68"/>
      <line class="cls-1" x1="321.79" y1="214.23" x2="321.79" y2="194.21"/>
      <line class="cls-1" x1="300.79" y1="191.58" x2="300.79" y2="213.87"/>
      <line class="cls-1" x1="304.86" y1="192.09" x2="304.86" y2="213.87"/>
      <line class="cls-1" x1="297.87" y1="191.58" x2="297.87" y2="213.83"/>
      <polygon class="cls-1" points="372.11 200.42 372.11 215.11 390.19 215.43 390.19 202.98 372.11 200.42"/>
      <line class="cls-1" x1="387.41" y1="202.59" x2="387.41" y2="215.38"/>
      <line class="cls-1" x1="381.15" y1="201.7" x2="381.15" y2="215.27"/>
      <line class="cls-1" x1="378.68" y1="201.5" x2="378.68" y2="215.23"/>
      <line class="cls-1" x1="377.14" y1="201.13" x2="377.14" y2="215.2"/>
      <polyline class="cls-2" points="4.64 159.24 4.64 269.12 246.5 375.85 361.02 283.69 333.54 280.85 260.84 323.58 260.84 167.17 144.19 182.79 144.19 291.75"/>
      <line class="cls-2" x1="361.02" y1="45.56" x2="361.02" y2="187.86"/>
      <polyline class="cls-2" points="122.4 117.83 122.4 210.92 130.24 210.92 130.24 295.28 144.19 291.75 187.07 303.45"/>
      <polyline class="cls-2" points="42.53 268.09 12.54 272.32 12.54 213.38 41.96 212.53 42.53 268.09 130.24 295.28"/>
      <polyline class="cls-2" points="4.64 269.12 4.64 281.61 246.42 404.47 246.42 375.85"/>
      <ellipse class="cls-1" cx="102.69" cy="385.75" rx="25.81" ry="9.89"/>
      <path class="cls-1" d="M84.3,355.49c0,2.73-5.78,4.95-12.91,4.95s-12.91-2.21-12.91-4.95,5.78-4.95,12.91-4.95,12.91,2.21,12.91,4.95Z"/>
      <ellipse class="cls-1" cx="372.11" cy="331.65" rx="12.91" ry="4.95"/>
      <path class="cls-1" d="M361.75,355.49c0,2.73-5.78,4.95-12.91,4.95s-12.91-2.21-12.91-4.95,5.78-4.95,12.91-4.95,12.91,2.21,12.91,4.95Z"/>
      <ellipse class="cls-1" cx="321.79" cy="385.75" rx="12.91" ry="4.95"/>
      <polyline class="cls-2" points="246.42 404.47 401.64 258.52 401.64 124.36 361.02 51.9 226.04 100.33 226.04 146.66 122.4 117.83 4.64 162.1"/>
      <line class="cls-2" x1="226.04" y1="146.66" x2="226.04" y2="171.8"/>
      <line class="cls-2" x1="361.02" y1="283.69" x2="361.02" y2="187.86"/>
      <polyline class="cls-2" points="260.84 167.17 333.13 182.1 333.54 280.85"/>
      <polygon class="cls-1" points="145.13 140.03 145.13 167.17 217.83 181.39 217.83 158.73 145.13 140.03"/>
      <polyline class="cls-1" points="217.83 158.73 211.96 160.2 212.26 180.3"/>
      <line class="cls-1" x1="211.96" y1="160.2" x2="145.13" y2="143.58"/>
      <polyline class="cls-1" points="209.95 179.85 209.95 161.47 145.13 145.52"/>
      <polyline class="cls-1" points="209.95 161.47 208.35 161.47 208.35 179.54"/>
      <line class="cls-1" x1="194.85" y1="157.75" x2="194.85" y2="176.89"/>
      <line class="cls-1" x1="192.6" y1="157.2" x2="192.6" y2="176.28"/>
      <line class="cls-1" x1="191.05" y1="157.2" x2="191.05" y2="176.22"/>
      <line class="cls-1" x1="169.88" y1="151.89" x2="169.88" y2="172.01"/>
      <line class="cls-1" x1="166.78" y1="171.4" x2="166.78" y2="150.84"/>
      <line class="cls-1" x1="164.96" y1="150.39" x2="164.96" y2="170.97"/>
      <line class="cls-2" x1="122.4" y1="210.92" x2="41.96" y2="212.53"/>
      <line class="cls-1" x1="101.05" y1="145.18" x2="101.05" y2="188.59"/>
      <line class="cls-1" x1="68.85" y1="156.73" x2="68.85" y2="192.92"/>
      <line class="cls-1" x1="49.3" y1="163.75" x2="49.3" y2="195.55"/>
      <line class="cls-1" x1="23.33" y1="173.06" x2="23.33" y2="199.84"/>
      <polyline class="cls-1" points="23.33 173.06 27.2 173.6 27.2 198.52"/>
      <line class="cls-1" x1="27.2" y1="173.6" x2="49.3" y2="166.49"/>
      <polyline class="cls-1" points="68.85 156.73 74.08 157.36 74.08 192.11"/>
      <line class="cls-1" x1="74.08" y1="157.36" x2="101.05" y2="148.08"/>
      <polyline class="cls-1" points="75.72 192 75.72 158.37 101.05 149.87"/>
      <line class="cls-1" x1="90.13" y1="153.53" x2="90.13" y2="190.06"/>
      <polyline class="cls-1" points="92.21 189.78 92.21 152.83 93.7 153.53 93.7 189.58"/>
      <polyline class="cls-1" points="75.72 158.37 76.88 158.86 76.88 191.84"/>
      <line class="cls-1" x1="76.88" y1="158.86" x2="90.13" y2="154.6"/>
      <line class="cls-1" x1="93.7" y1="153.53" x2="101.05" y2="151.03"/>
      <polyline class="cls-1" points="28.56 198.34 28.56 174.42 49.3 168.23"/>
      <line class="cls-1" x1="38.93" y1="171.33" x2="38.93" y2="196.95"/>
      <polyline class="cls-1" points="40.31 196.76 40.31 170.91 41.31 171.33 41.31 196.62"/>
      <polyline class="cls-1" points="28.56 174.42 29.49 174.76 29.49 198.21"/>
      <line class="cls-1" x1="29.49" y1="174.76" x2="38.93" y2="172"/>
      <line class="cls-1" x1="41.31" y1="171.33" x2="49.3" y2="168.96"/>
      <line class="cls-5" x1="8.42" y1="127.34" x2="8.42" y2="321.41"/>
      <line class="cls-5" x1="122.12" y1="91.05" x2="122.12" y2="380.52"/>
      <line class="cls-5" x1="130.24" y1="94.24" x2="130.24" y2="388.93"/>
      <line class="cls-5" x1="225.7" y1="88.15" x2="225.7" y2="416.71"/>
      <line class="cls-5" x1="361.02" y1="30.31" x2="361.02" y2="326.95"/>
      <line class="cls-5" x1="176.02" y1="68.1" x2="176.02" y2="314.81"/>
      <line class="cls-5" x1="401.64" y1="96.6" x2="401.64" y2="287.92"/>
      <line class="cls-5" x1="261.12" y1="144.13" x2="261.12" y2="335.45"/>
      <line class="cls-5" x1=".13" y1="149.89" x2="377.14" y2=".08"/>
      <line class="cls-5" x1="408.84" y1="119.32" x2="340.31" y2=".08"/>
      <line class="cls-1" x1="322.63" y1="77.27" x2="322.63" y2="179.69"/>
      <polygon class="cls-1" points="50.01 218.16 122.12 218.16 122.12 263.99 50.01 253.93 50.01 218.16"/>
      <polyline class="cls-1" points="54.58 218.16 54.58 253.2 50.01 253.93"/>
      <line class="cls-1" x1="54.58" y1="253.2" x2="122.12" y2="262.1"/>
      <polyline class="cls-1" points="56.77 218.16 56.77 251.81 122.12 259.44"/>
      <line class="cls-1" x1="86.07" y1="218.16" x2="86.07" y2="255.23"/>
      <line class="cls-1" x1="91.48" y1="255.62" x2="91.48" y2="218.16"/>
      <line class="cls-1" x1="89.45" y1="218.16" x2="89.45" y2="255.62"/>
      <polyline class="cls-1" points="56.77 251.81 58.42 251.81 58.42 218.16"/>
    </g>
  </g>
</svg>